# xmcd CD database file
#
# Track frame offsets:
#	150
#	56232
#	83437
#	118280
#	150474
#	209364
#	231189
#	249727
#
# Disc length: 4137 seconds
#
# Revision: 0
# Processed by: cddbd v1.5.2PL0 Copyright (c) Steve Scherf et al.
# Submitted via: CDex 1.70beta2
#
DISCID=68102708
DTITLE=Lalo Schiffrin - more jazz meets the symphony
DYEAR=1900
DGENRE=Jazz
TTITLE0=sketches of Miles
TTITLE1=down here on the ground
TTITLE2=chano
TTITLE3=begin the beguine
TTITLE4=django
TTITLE5=old friends
TTITLE6=madrigal
TTITLE7=portrait of Louis Armstrong
EXTD=
EXTT0=
EXTT1=
EXTT2=
EXTT3=
EXTT4=
EXTT5=
EXTT6=
EXTT7=
PLAYORDER=
